<svg width="204" height="24" viewBox="0 0 204 24" fill="none" xmlns="http://www.w3.org/2000/svg">
<path fill-rule="evenodd" clip-rule="evenodd" d="M197.976 0C198.996 0 199.922 0.237135 200.752 0.711411C201.582 1.18569 202.234 1.83781 202.708 2.66779C203.182 3.49778 203.42 4.41796 203.42 5.42838C203.42 6.43879 203.177 7.36414 202.693 8.20443C202.208 9.04472 201.548 9.70716 200.713 10.1917C199.878 10.6763 198.955 10.9186 197.945 10.9186C196.934 10.9186 196.014 10.6763 195.184 10.1917C194.354 9.70716 193.7 9.0473 193.22 8.21216C192.741 7.37702 192.501 6.45941 192.501 5.45931C192.501 4.4592 192.741 3.5416 193.22 2.70646C193.7 1.87132 194.357 1.21146 195.192 0.726877C196.027 0.24229 196.955 0 197.976 0ZM197.945 9.91331C198.77 9.91331 199.52 9.71484 200.195 9.31789C200.871 8.92094 201.402 8.37966 201.788 7.69402C202.175 7.00838 202.368 6.25316 202.368 5.42833C202.368 4.59319 202.18 3.84054 201.804 3.17037C201.427 2.50019 200.904 1.9718 200.234 1.58516C199.564 1.19852 198.811 1.0052 197.976 1.0052C197.141 1.0052 196.388 1.2011 195.718 1.59289C195.048 1.98468 194.522 2.52081 194.141 3.2013C193.759 3.88178 193.568 4.63443 193.568 5.45926C193.568 6.28409 193.759 7.03673 194.141 7.71722C194.522 8.3977 195.045 8.93383 195.71 9.32562C196.375 9.71742 197.12 9.91331 197.945 9.91331ZM200.822 4.59327C200.822 5.0263 200.726 5.40005 200.536 5.71452C200.345 6.02898 200.064 6.27385 199.693 6.44913L201.007 8.45963H199.399L198.27 6.7275H197.203V8.45963H195.594V2.45904H198.208C199.023 2.45904 199.662 2.65235 200.126 3.03899C200.59 3.42563 200.822 3.94372 200.822 4.59327ZM198.1 5.52127C198.46 5.52127 198.741 5.44136 198.942 5.28155C199.144 5.12174 199.244 4.89234 199.244 4.59334C199.244 4.29434 199.144 4.06236 198.942 3.89739C198.741 3.73243 198.46 3.64994 198.1 3.64994H197.187V5.52127H198.1Z" fill="white"/>
<path fill-rule="evenodd" clip-rule="evenodd" d="M184.148 0.679504L182.363 3.04853C181.379 4.34038 180.303 5.78617 179.349 7.07802H179.288C178.795 5.78617 178.211 4.34038 177.657 3.01747L176.673 0.679504H169.505L174.611 11.5389L165.105 22.9516H172.55L174.611 20.2758C175.719 18.8296 176.796 17.4142 177.841 15.9991H177.903C178.426 17.3838 179.041 18.86 179.626 20.2758L180.764 22.9516H188.024L182.548 11.5389L191.531 0.679504H184.148Z" fill="white"/>
<path fill-rule="evenodd" clip-rule="evenodd" d="M161.506 0.679504L157.568 22.9516H163.905L167.843 0.679504H161.506Z" fill="white"/>
<path fill-rule="evenodd" clip-rule="evenodd" d="M144.003 0.679504L140.065 22.9516H155.385L156.339 17.5989H147.356L150.341 0.679504H144.003Z" fill="white"/>
<path fill-rule="evenodd" clip-rule="evenodd" d="M126.592 0.679504L122.654 22.9516H128.991L130.499 14.338H137.482L138.374 9.29312H131.391L131.975 6.03225H140.159L141.112 0.679504H126.592Z" fill="white"/>
<path fill-rule="evenodd" clip-rule="evenodd" d="M87.9819 0.679504L87.0283 6.03225H94.0112L91.0274 22.9516H97.3645L100.349 6.03225H104.481L105.435 0.679504H87.9819Z" fill="white"/>
<path fill-rule="evenodd" clip-rule="evenodd" d="M106.796 0.679504L105.843 6.03225H109.975L106.991 22.9516H113.328L116.312 6.03225H123.295L124.249 0.679504H106.796Z" fill="white"/>
<path fill-rule="evenodd" clip-rule="evenodd" d="M72.918 3.38642C72.918 4.74005 73.9334 5.84726 75.3792 5.84726C76.856 5.84726 78.1171 4.64756 78.1171 3.14034C78.1171 1.78671 77.071 0.679504 75.6563 0.679504C74.1794 0.679504 72.918 1.87886 72.918 3.38642Z" fill="white"/>
<path fill-rule="evenodd" clip-rule="evenodd" d="M71.5674 10.9768C71.5674 12.3301 72.5824 13.438 74.0282 13.438C75.5051 13.438 76.7662 12.2379 76.7662 10.7307C76.7662 9.37708 75.7204 8.26953 74.3054 8.26953C72.8285 8.26953 71.5674 9.46889 71.5674 10.9768Z" fill="white"/>
<path fill-rule="evenodd" clip-rule="evenodd" d="M79.8929 0.679504L77.8014 12.4922C77.4628 14.3998 77.0938 15.5688 76.2938 16.4609C75.5552 17.291 74.5402 17.7835 73.0944 17.7835C70.7871 17.7835 69.6796 16.5531 69.6796 14.338C69.6796 13.8151 69.7414 13.1383 69.8953 12.2154L71.9257 0.679504H65.5883L63.5582 12.1847C63.3428 13.3537 63.25 14.738 63.25 15.507C63.25 20.5215 67.2187 23.2902 72.5408 23.2902C75.8631 23.2902 78.7857 22.2137 80.7544 20.1829C82.323 18.5528 83.2155 16.3377 83.8616 12.6768L85.9839 0.679504H79.8929Z" fill="white"/>
<path fill-rule="evenodd" clip-rule="evenodd" d="M55.99 0.679504L54.5749 8.70845H46.9456L48.3607 0.679504H42.0236L38.0859 22.9516H44.4234L45.992 14.0612H53.6209L52.0523 22.9516H58.3894L62.3274 0.679504H55.99Z" fill="white"/>
<path fill-rule="evenodd" clip-rule="evenodd" d="M22.4289 3.87873C19.9063 6.33991 18.4912 9.93935 18.4912 13.3538C18.4912 19.7219 23.3518 23.2903 29.8735 23.2903C31.5654 23.2903 33.6269 23.0439 35.3495 22.3367L36.426 16.215C34.6416 17.1379 32.3036 17.6604 30.4578 17.6604C27.1352 17.6604 24.8283 15.9689 24.8283 12.7081C24.8283 10.9851 25.4744 9.04683 26.7662 7.75463C27.8738 6.64743 29.4428 5.97061 31.35 5.97061C33.2573 5.97061 35.4416 6.64743 37.3796 7.75463L38.395 1.94078C36.5185 0.956446 34.1494 0.341064 31.5961 0.341064C27.9049 0.341064 24.7365 1.63292 22.4289 3.87873Z" fill="white"/>
<path fill-rule="evenodd" clip-rule="evenodd" d="M1.07683 14.6125C2.92297 16.2122 5.93741 17.6887 8.15251 17.6887C8.76754 17.6887 9.25971 17.5658 9.59795 17.289C9.87509 17.0733 10.0901 16.7351 10.0901 16.2429C10.0901 14.9814 8.58289 14.6432 6.18349 13.3513C3.66088 11.9977 1.75365 10.5212 1.75365 7.50606C1.75365 5.32203 2.73798 3.29158 4.55272 1.87652C6.09134 0.676816 8.15251 0 10.4901 0C12.8595 0 15.4432 0.707533 17.5044 1.96867L16.489 7.65965C14.52 6.3678 11.813 5.26025 10.0594 5.26025C9.47508 5.26025 9.07541 5.38346 8.76754 5.56811C8.33681 5.84526 8.18322 6.24493 8.18322 6.67566C8.18322 7.78286 9.22899 8.02895 11.752 9.32114C14.551 10.7669 16.5197 12.3052 16.5197 15.4429C16.5197 17.6269 15.5661 19.5655 13.936 20.9188C12.3363 22.2414 10.1212 22.9489 7.62928 22.9489C4.98379 22.9489 2.24616 22.1492 0 20.7031L1.07683 14.6125Z" fill="white"/>
</svg>
